<svg width="1600" height="1100" viewBox="0 0 1600 1100" fill="none" xmlns="http://www.w3.org/2000/svg">
  <defs>
    <linearGradient id="g1" x1="0" y1="0" x2="1" y2="1">
      <stop offset="0%" stop-color="#0f1117"/>
      <stop offset="100%" stop-color="#0b0c10"/>
    </linearGradient>
    <linearGradient id="plasma1" x1="0" y1="0" x2="1" y2="1">
      <stop offset="0%" stop-color="#EA5EFF"/>
      <stop offset="100%" stop-color="#5EF1FF"/>
    </linearGradient>
    <radialGradient id="glow" cx="50%" cy="35%" r="60%">
      <stop offset="0%" stop-color="#EA5EFF" stop-opacity="0.35"/>
      <stop offset="100%" stop-color="#EA5EFF" stop-opacity="0"/>
    </radialGradient>
    <filter id="blur" x="-20%" y="-20%" width="140%" height="140%">
      <feGaussianBlur stdDeviation="40"/>
    </filter>
    <linearGradient id="wire" x1="0" y1="0" x2="1600" y2="0" gradientUnits="userSpaceOnUse">
      <stop offset="0%" stop-color="#5EF1FF"/>
      <stop offset="50%" stop-color="#EA5EFF"/>
      <stop offset="100%" stop-color="#FF7A59"/>
    </linearGradient>
  </defs>

  <rect width="1600" height="1100" fill="url(#g1)"/>

  <ellipse cx="800" cy="400" rx="700" ry="320" fill="url(#glow)" filter="url(#blur)"/>

  <g opacity="0.9">
    <path d="M-50,720 C200,580 420,900 700,760 C980,620 1180,880 1450,720 L1700,560 L1700,1200 L-50,1200 Z"
          fill="url(#plasma1)" opacity="0.18"/>
    <path d="M-50,800 C250,660 520,940 820,780 C1120,620 1320,900 1650,740 L1700,720 L1700,1200 L-50,1200 Z"
          fill="#5EF1FF" opacity="0.08"/>
  </g>

  <g opacity="0.7">
    <path d="M-20 620 Q 120 560 260 600 T 540 600 T 820 600 T 1100 600 T 1380 600 T 1660 600"
          stroke="url(#wire)" stroke-width="4" fill="none"/>
    <path d="M-20 660 Q 120 600 260 640 T 540 640 T 820 640 T 1100 640 T 1380 640 T 1660 640"
          stroke="url(#wire)" stroke-width="3" fill="none" opacity="0.7"/>
    <path d="M-20 700 Q 120 640 260 680 T 540 680 T 820 680 T 1100 680 T 1380 680 T 1660 680"
          stroke="url(#wire)" stroke-width="2" fill="none" opacity="0.5"/>
  </g>

  <g opacity="0.22">
    <circle cx="240" cy="280" r="120" fill="#EA5EFF" filter="url(#blur)"/>
    <circle cx="1320" cy="240" r="140" fill="#5EF1FF" filter="url(#blur)"/>
  </g>

  <rect x="60" y="60" width="1480" height="980" rx="32" stroke="white" opacity="0.06"/>
</svg>


